<svg data-v-423bf9ae="" xmlns="http://www.w3.org/2000/svg" viewBox="0 0 361.7757426935628 164" class="iconAbove"><!----><!----><!----><g data-v-423bf9ae="" id="1db6eee4-6bd0-4518-89bd-4b8f52f15657" fill="white" transform="matrix(3.4149118407597263,0,0,3.4149118407597263,-4.302787776067248,94.5995122446974)"><path d="M5.78 4.20L5.78 4.20L5.78 4.20Q7.71 4.20 8.82 5.73L8.82 5.73L8.82 5.73Q9.93 7.25 9.93 9.56L9.93 9.56L9.93 9.56Q9.93 11.91 8.65 13.71L8.65 13.71L8.65 13.71Q8.04 14.59 6.99 15.11L6.99 15.11L6.99 15.11Q5.95 15.64 4.84 15.64L4.84 15.64L4.84 15.64Q3.72 15.64 2.88 15.40L2.88 15.40L2.88 15.40Q2.03 15.16 1.65 14.92L1.65 14.92L1.26 14.69L1.26 14.69Q1.27 14.57 1.57 12.60L1.57 12.60L1.57 12.60Q2.18 8.48 2.18 5.14L2.18 5.14L2.18 5.14Q2.18 4.03 1.99 3.57L1.99 3.57L1.99 3.57Q3.15 3.96 3.44 4.80L3.44 4.80L3.44 4.80Q4.69 4.20 5.78 4.20ZM2.88 14.45L2.88 14.45L2.88 14.45Q3.50 14.66 4.38 14.66L4.38 14.66L4.38 14.66Q5.26 14.66 6.09 14.20L6.09 14.20L6.09 14.20Q6.92 13.75 7.42 12.99L7.42 12.99L7.42 12.99Q8.46 11.47 8.46 9.55L8.46 9.55L8.46 9.55Q8.46 7.63 7.60 6.45L7.60 6.45L7.60 6.45Q6.75 5.28 5.31 5.28L5.31 5.28L5.31 5.28Q4.34 5.28 3.63 5.60L3.63 5.60L3.63 5.60Q3.63 6.47 3.25 9.97L3.25 9.97L3.25 9.97Q2.88 13.47 2.88 14.45ZM13.50 15.64L13.50 15.64Q12.70 15.36 12.38 14.78L12.38 14.78L12.38 14.78Q12.07 14.20 12.07 13.37L12.07 13.37L12.07 13.37Q12.07 12.54 12.29 11.00L12.29 11.00L12.29 11.00Q12.52 9.46 12.52 8.61L12.52 8.61L12.52 8.61Q12.52 7.76 12.43 7.29L12.43 7.29L12.43 7.29Q12.68 7.27 12.84 7.27L12.84 7.27L12.84 7.27Q13.47 7.27 13.75 7.55L13.75 7.55L13.75 7.55Q14.03 7.83 14.03 8.47L14.03 8.47L14.03 8.47Q14.03 8.68 13.69 10.68L13.69 10.68L13.69 10.68Q13.34 12.67 13.34 13.96L13.34 13.96L13.34 13.96Q13.33 15.26 13.50 15.64L13.50 15.64ZM13.71 5.88L13.71 5.88L13.71 5.88Q12.53 5.88 12.53 5.08L12.53 5.08L12.53 5.08Q12.53 4.80 12.74 4.30L12.74 4.30L12.74 4.30Q13.05 4.24 13.27 4.24L13.27 4.24L13.27 4.24Q14.45 4.24 14.45 5.04L14.45 5.04L14.45 5.04Q14.45 5.32 14.24 5.82L14.24 5.82L14.24 5.82Q13.93 5.88 13.71 5.88ZM19.10 8.04L19.10 8.04L19.10 8.04Q18.63 8.04 18.26 8.33L18.26 8.33L18.26 8.33Q17.89 8.62 17.89 9.14L17.89 9.14L17.89 9.14Q17.89 9.65 18.23 10.09L18.23 10.09L18.23 10.09Q18.58 10.54 19.07 10.89L19.07 10.89L19.07 10.89Q19.56 11.24 20.06 11.61L20.06 11.61L20.06 11.61Q21.24 12.47 21.24 13.47L21.24 13.47L21.24 13.47Q21.24 14.46 20.44 15.09L20.44 15.09L20.44 15.09Q19.64 15.71 18.40 15.71L18.40 15.71L18.40 15.71Q17.16 15.71 16.48 15.22L16.48 15.22L16.48 15.22Q15.81 14.73 15.81 14.06L15.81 14.06L15.81 14.06Q15.81 13.40 16.14 13.02L16.14 13.02L16.14 13.02Q16.48 12.64 16.95 12.64L16.95 12.64L16.95 12.64Q17.21 12.64 17.43 12.75L17.43 12.75L17.43 12.75Q17.12 13.15 17.12 13.68L17.12 13.68L17.12 13.68Q17.12 14.21 17.45 14.57L17.45 14.57L17.45 14.57Q17.78 14.94 18.36 14.94L18.36 14.94L18.36 14.94Q18.94 14.94 19.35 14.64L19.35 14.64L19.35 14.64Q19.75 14.34 19.75 13.87L19.75 13.87L19.75 13.87Q19.75 13.41 19.52 13.06L19.52 13.06L19.52 13.06Q19.28 12.71 18.92 12.46L18.92 12.46L18.92 12.46Q18.56 12.21 18.14 11.90L18.14 11.90L18.14 11.90Q17.72 11.59 17.37 11.29L17.37 11.29L17.37 11.29Q17.01 10.99 16.77 10.54L16.77 10.54L16.77 10.54Q16.53 10.08 16.53 9.53L16.53 9.53L16.53 9.53Q16.53 8.54 17.29 7.90L17.29 7.90L17.29 7.90Q18.05 7.27 19.19 7.27L19.19 7.27L19.19 7.27Q20.34 7.27 20.87 7.74L20.87 7.74L20.87 7.74Q21.41 8.22 21.41 8.81L21.41 8.81L21.41 8.81Q21.41 9.41 21.11 9.79L21.11 9.79L21.11 9.79Q20.82 10.18 20.36 10.18L20.36 10.18L20.36 10.18Q20.13 10.18 19.84 10.05L19.84 10.05L19.84 10.05Q20.20 9.60 20.20 9.09L20.20 9.09L20.20 9.09Q20.20 8.57 19.89 8.30L19.89 8.30L19.89 8.30Q19.57 8.04 19.10 8.04ZM25.17 10.37L25.17 10.37Q25.75 9.07 26.62 8.38L26.62 8.38L26.62 8.38Q27.50 7.69 28.36 7.69L28.36 7.69L28.36 7.69Q29.22 7.69 29.78 8.38L29.78 8.38L29.78 8.38Q30.34 9.07 30.34 10.39L30.34 10.39L30.34 10.39Q30.34 12.47 29.24 13.95L29.24 13.95L29.24 13.95Q28.14 15.43 26.60 15.43L26.60 15.43L26.60 15.43Q26.05 15.43 25.48 15.20L25.48 15.20L25.48 15.20Q26.53 14.99 27.32 14.13L27.32 14.13L27.32 14.13Q28.11 13.27 28.47 12.29L28.47 12.29L28.47 12.29Q28.83 11.30 28.83 10.51L28.83 10.51L28.83 10.51Q28.83 9.72 28.55 9.30L28.55 9.30L28.55 9.30Q28.27 8.88 27.75 8.88L27.75 8.88L27.75 8.88Q26.78 8.88 26.03 9.95L26.03 9.95L26.03 9.95Q25.27 11.02 24.86 12.85L24.86 12.85L24.86 12.85Q24.46 14.69 24.46 16.64L24.46 16.64L24.46 16.64Q24.46 18.59 24.74 20.03L24.74 20.03L24.74 20.03Q23.88 19.99 23.39 19.66L23.39 19.66L23.39 19.66Q22.90 19.32 22.90 18.41L22.90 18.41L22.90 18.41Q22.90 18.07 23.33 14.86L23.33 14.86L23.33 14.86Q23.76 11.65 23.76 9.91L23.76 9.91L23.76 9.91Q23.76 8.18 23.55 6.99L23.55 6.99L23.55 6.99Q24.47 7.25 24.82 8.07L24.82 8.07L24.82 8.07Q25.17 8.89 25.17 10.37L25.17 10.37ZM34.34 9.95L34.34 9.95L34.34 9.95Q33.94 10.65 33.72 11.39L33.72 11.39L33.72 11.39Q33.50 12.12 33.50 12.80L33.50 12.80L33.50 12.80Q33.50 13.47 33.80 13.94L33.80 13.94L33.80 13.94Q34.10 14.41 34.66 14.41L34.66 14.41L34.66 14.41Q35.45 14.41 36.13 13.55L36.13 13.55L36.13 13.55Q36.82 12.68 37.19 11.46L37.19 11.46L37.19 11.46Q37.56 10.23 37.56 9.19L37.56 9.19L37.56 9.19Q37.56 8.15 37.48 7.48L37.48 7.48L37.48 7.48Q37.81 7.45 37.90 7.45L37.90 7.45L37.90 7.45Q39.09 7.45 39.09 8.67L39.09 8.67L39.09 8.67Q39.09 8.93 38.75 10.83L38.75 10.83L38.75 10.83Q38.42 12.73 38.42 13.87L38.42 13.87L38.42 13.87Q38.42 15.01 38.85 15.89L38.85 15.89L38.85 15.89Q37.97 15.71 37.57 15.11L37.57 15.11L37.57 15.11Q37.17 14.52 37.17 13.40L37.17 13.40L37.17 13.40Q37.17 13.20 37.23 12.64L37.23 12.64L37.23 12.64Q36.85 13.97 35.90 14.78L35.90 14.78L35.90 14.78Q34.94 15.60 34.03 15.60L34.03 15.60L34.03 15.60Q33.11 15.60 32.55 14.90L32.55 14.90L32.55 14.90Q31.99 14.21 31.99 12.99L31.99 12.99L31.99 12.99Q31.99 11.76 32.45 10.59L32.45 10.59L32.45 10.59Q32.90 9.42 33.82 8.57L33.82 8.57L33.82 8.57Q34.73 7.71 35.87 7.71L35.87 7.71L35.87 7.71Q36.36 7.71 36.95 7.91L36.95 7.91L36.95 7.91Q36.12 8.12 35.43 8.68L35.43 8.68L35.43 8.68Q34.75 9.24 34.34 9.95ZM45.68 7.76L45.68 7.76L45.68 7.76Q45.68 8.34 45.46 8.57L45.46 8.57L45.46 8.57Q45.23 8.79 44.80 8.79L44.80 8.79L43.79 8.79L43.79 8.79Q43.74 9.16 43.50 10.53L43.50 10.53L43.50 10.53Q43.02 13.13 43.02 14.46L43.02 14.46L43.02 14.46Q43.02 15.79 43.22 16.23L43.22 16.23L43.22 16.23Q42.42 15.93 42.08 15.34L42.08 15.34L42.08 15.34Q41.75 14.74 41.75 13.89L41.75 13.89L41.75 13.89Q41.75 13.03 41.85 12.27L41.85 12.27L41.85 12.27Q41.96 11.51 42.15 10.49L42.15 10.49L42.15 10.49Q42.35 9.46 42.43 8.85L42.43 8.85L42.43 8.85Q41.64 8.96 40.87 9.30L40.87 9.30L40.87 9.30Q40.84 9.07 40.84 8.89L40.84 8.89L40.84 8.89Q40.84 8.22 41.29 7.99L41.29 7.99L41.29 7.99Q41.73 7.76 42.57 7.76L42.57 7.76L42.57 7.76Q42.67 6.72 42.67 6.21L42.67 6.21L42.67 6.21Q42.67 5.70 42.66 5.39L42.66 5.39L42.66 5.39Q42.66 5.08 42.66 4.93L42.66 4.93L42.66 4.93Q43.30 5.03 43.65 5.50L43.65 5.50L43.65 5.50Q44.00 5.96 44.00 6.78L44.00 6.78L44.00 6.78Q44.00 7.20 43.93 7.80L43.93 7.80L43.93 7.80Q45.15 7.80 45.65 7.39L45.65 7.39L45.65 7.39Q45.68 7.59 45.68 7.76ZM49.06 8.73L49.06 8.73L49.06 8.73Q48.51 9.38 48.24 10.33L48.24 10.33L48.24 10.33Q47.96 11.27 47.96 12.35L47.96 12.35L47.96 12.35Q47.96 13.43 48.33 14.08L48.33 14.08L48.33 14.08Q48.69 14.74 49.30 14.74L49.30 14.74L49.30 14.74Q49.91 14.74 50.50 14.38L50.50 14.38L50.50 14.38Q51.09 14.01 51.49 13.37L51.49 13.37L51.49 13.37Q52.01 13.44 52.01 13.75L52.01 13.75L52.01 13.75Q51.63 14.45 51.06 14.90L51.06 14.90L51.06 14.90Q50.50 15.34 50.01 15.49L50.01 15.49L50.01 15.49Q49.52 15.64 49.01 15.64L49.01 15.64L49.01 15.64Q47.94 15.64 47.19 14.79L47.19 14.79L47.19 14.79Q46.45 13.94 46.45 12.33L46.45 12.33L46.45 12.33Q46.45 10.29 47.56 8.82L47.56 8.82L47.56 8.82Q48.66 7.35 50.50 7.35L50.50 7.35L50.50 7.35Q51.51 7.35 52.02 7.88L52.02 7.88L52.02 7.88Q52.54 8.40 52.54 9.09L52.54 9.09L52.54 9.09Q52.54 9.79 52.16 10.28L52.16 10.28L52.16 10.28Q51.77 10.77 51.17 10.77L51.17 10.77L51.17 10.77Q50.79 10.77 50.53 10.64L50.53 10.64L50.53 10.64Q50.75 10.39 50.91 9.93L50.91 9.93L50.91 9.93Q51.07 9.48 51.07 9.04L51.07 9.04L51.07 9.04Q51.07 8.08 50.27 8.08L50.27 8.08L50.27 8.08Q49.60 8.08 49.06 8.73ZM55.94 11.10L55.94 11.10Q56.41 9.52 57.37 8.44L57.37 8.44L57.37 8.44Q58.32 7.35 59.16 7.35L59.16 7.35L59.16 7.35Q60.00 7.35 60.35 7.86L60.35 7.86L60.35 7.86Q60.70 8.37 60.70 9.25L60.70 9.25L60.70 9.25Q60.70 10.12 60.43 11.70L60.43 11.70L60.43 11.70Q60.16 13.29 60.16 14.01L60.16 14.01L60.16 14.01Q60.16 14.73 60.34 15.06L60.34 15.06L60.34 15.06Q60.52 15.39 60.96 15.62L60.96 15.62L60.96 15.62Q60.77 15.64 60.44 15.64L60.44 15.64L60.44 15.64Q59.54 15.64 59.12 15.27L59.12 15.27L59.12 15.27Q58.69 14.90 58.69 14L58.69 14L58.69 14Q58.69 13.48 58.97 11.91L58.97 11.91L58.97 11.91Q59.25 10.33 59.25 9.59L59.25 9.59L59.25 9.59Q59.25 8.67 58.60 8.67L58.60 8.67L58.60 8.67Q58.23 8.67 57.76 9.07L57.76 9.07L57.76 9.07Q57.30 9.46 56.88 10.14L56.88 10.14L56.88 10.14Q56.45 10.82 56.16 11.87L56.16 11.87L56.16 11.87Q55.87 12.91 55.87 13.92L55.87 13.92L55.87 13.92Q55.87 14.94 55.96 15.43L55.96 15.43L55.96 15.43Q55.62 15.46 55.58 15.46L55.58 15.46L55.58 15.46Q54.92 15.46 54.61 15.18L54.61 15.18L54.61 15.18Q54.29 14.90 54.29 14.30L54.29 14.30L54.29 14.30Q54.29 13.71 54.54 12.01L54.54 12.01L54.54 12.01Q55.29 6.80 55.29 4.10L55.29 4.10L55.29 4.10Q55.29 2.88 55.12 2.46L55.12 2.46L55.12 2.46Q55.93 2.76 56.26 3.33L56.26 3.33L56.26 3.33Q56.59 3.91 56.59 4.91L56.59 4.91L56.59 4.91Q56.59 5.61 56.32 7.85L56.32 7.85L56.32 7.85Q56.04 10.09 55.94 11.10L55.94 11.10ZM66.39 15.64L66.39 15.64L66.39 15.64Q64.83 15.64 63.77 14.38L63.77 14.38L63.77 14.38Q62.71 13.12 62.71 10.71L62.71 10.71L62.71 10.71Q62.71 8.93 63.28 7.47L63.28 7.47L63.28 7.47Q63.85 6.01 65.08 5.08L65.08 5.08L65.08 5.08Q66.30 4.14 67.84 4.14L67.84 4.14L67.84 4.14Q69.38 4.14 70.08 4.89L70.08 4.89L70.08 4.89Q70.78 5.64 70.78 6.61L70.78 6.61L70.78 6.61Q70.78 7.57 70.29 8.16L70.29 8.16L70.29 8.16Q69.80 8.74 69.02 8.74L69.02 8.74L69.02 8.74Q68.77 8.74 68.40 8.62L68.40 8.62L68.40 8.62Q68.73 8.29 68.97 7.68L68.97 7.68L68.97 7.68Q69.22 7.07 69.22 6.45L69.22 6.45L69.22 6.45Q69.22 5.84 68.89 5.40L68.89 5.40L68.89 5.40Q68.56 4.96 67.84 4.96L67.84 4.96L67.84 4.96Q66.77 4.96 65.92 5.85L65.92 5.85L65.92 5.85Q65.07 6.73 64.65 8.03L64.65 8.03L64.65 8.03Q64.22 9.32 64.22 10.70L64.22 10.70L64.22 10.70Q64.22 12.63 64.96 13.59L64.96 13.59L64.96 13.59Q65.70 14.55 66.88 14.55L66.88 14.55L66.88 14.55Q67.66 14.55 68.49 14.07L68.49 14.07L68.49 14.07Q69.31 13.59 69.85 12.70L69.85 12.70L69.85 12.70Q70.06 12.70 70.24 12.82L70.24 12.82L70.24 12.82Q70.42 12.95 70.42 13.08L70.42 13.08L70.42 13.08Q69.64 14.56 68.45 15.13L68.45 15.13L68.45 15.13Q67.41 15.64 66.39 15.64ZM75.87 8.08L75.87 8.08L75.87 8.08Q75.03 8.08 74.45 9.04L74.45 9.04L74.45 9.04Q73.86 10.01 73.67 11.31L73.67 11.31L74.06 11.31L74.06 11.31Q74.80 11.31 75.35 11.10L75.35 11.10L75.35 11.10Q75.89 10.89 76.19 10.56L76.19 10.56L76.19 10.56Q76.75 9.91 76.75 9.10L76.75 9.10L76.75 9.10Q76.75 8.64 76.53 8.36L76.53 8.36L76.53 8.36Q76.31 8.08 75.87 8.08ZM77.84 13.75L77.84 13.75Q77.20 14.80 76.43 15.22L76.43 15.22L76.43 15.22Q75.66 15.64 74.64 15.64L74.64 15.64L74.64 15.64Q73.63 15.64 72.87 14.74L72.87 14.74L72.87 14.74Q72.11 13.85 72.11 12.22L72.11 12.22L72.11 12.22Q72.11 10.37 73.11 8.92L73.11 8.92L73.11 8.92Q73.60 8.22 74.39 7.78L74.39 7.78L74.39 7.78Q75.18 7.35 76.13 7.35L76.13 7.35L76.13 7.35Q78.23 7.35 78.23 9.38L78.23 9.38L78.23 9.38Q78.23 10.60 77.29 11.29L77.29 11.29L77.29 11.29Q76.34 11.98 75.10 11.98L75.10 11.98L75.10 11.98Q74.27 11.98 73.61 11.83L73.61 11.83L73.61 11.83Q73.60 11.97 73.60 12.26L73.60 12.26L73.60 12.26Q73.60 14.74 75.07 14.74L75.07 14.74L75.07 14.74Q76.45 14.74 77.32 13.37L77.32 13.37L77.32 13.37Q77.84 13.44 77.84 13.75L77.84 13.75ZM86.39 9.34L86.39 9.34L86.39 9.34Q86.39 9.98 86.12 11.61L86.12 11.61L86.12 11.61Q85.85 13.24 85.85 13.99L85.85 13.99L85.85 13.99Q85.85 14.73 86.03 15.06L86.03 15.06L86.03 15.06Q86.21 15.39 86.65 15.62L86.65 15.62L86.65 15.62Q86.46 15.64 86.13 15.64L86.13 15.64L86.13 15.64Q85.18 15.64 84.78 15.28L84.78 15.28L84.78 15.28Q84.38 14.92 84.38 14L84.38 14L84.38 14Q84.38 13.48 84.66 11.91L84.66 11.91L84.66 11.91Q84.94 10.33 84.94 9.59L84.94 9.59L84.94 9.59Q84.94 8.67 84.38 8.67L84.38 8.67L84.38 8.67Q83.48 8.67 82.52 10.25L82.52 10.25L82.52 10.25Q81.56 11.83 81.56 14.06L81.56 14.06L81.56 14.06Q81.56 14.94 81.65 15.43L81.65 15.43L81.65 15.43Q81.28 15.46 81.21 15.46L81.21 15.46L81.21 15.46Q79.98 15.46 79.98 14.25L79.98 14.25L79.98 14.25Q79.98 13.97 80.28 12.10L80.28 12.10L80.28 12.10Q80.57 10.22 80.57 9.11L80.57 9.11L80.57 9.11Q80.57 7.99 80.33 7.06L80.33 7.06L80.33 7.06Q81.16 7.38 81.49 7.97L81.49 7.97L81.49 7.97Q81.82 8.57 81.82 9.33L81.82 9.33L81.82 9.33Q81.82 10.09 81.65 11.10L81.65 11.10L81.65 11.10Q82.11 9.52 83.10 8.44L83.10 8.44L83.10 8.44Q84.08 7.35 84.94 7.35L84.94 7.35L84.94 7.35Q86.39 7.35 86.39 9.34ZM93.10 7.76L93.10 7.76L93.10 7.76Q93.10 8.34 92.88 8.57L92.88 8.57L92.88 8.57Q92.65 8.79 92.22 8.79L92.22 8.79L91.21 8.79L91.21 8.79Q91.15 9.16 90.92 10.53L90.92 10.53L90.92 10.53Q90.44 13.13 90.44 14.46L90.44 14.46L90.44 14.46Q90.44 15.79 90.64 16.23L90.64 16.23L90.64 16.23Q89.84 15.93 89.50 15.34L89.50 15.34L89.50 15.34Q89.17 14.74 89.17 13.89L89.17 13.89L89.17 13.89Q89.17 13.03 89.27 12.27L89.27 12.27L89.27 12.27Q89.38 11.51 89.57 10.49L89.57 10.49L89.57 10.49Q89.77 9.46 89.85 8.85L89.85 8.85L89.85 8.85Q89.05 8.96 88.28 9.30L88.28 9.30L88.28 9.30Q88.26 9.07 88.26 8.89L88.26 8.89L88.26 8.89Q88.26 8.22 88.70 7.99L88.70 7.99L88.70 7.99Q89.15 7.76 89.99 7.76L89.99 7.76L89.99 7.76Q90.09 6.72 90.09 6.21L90.09 6.21L90.09 6.21Q90.09 5.70 90.08 5.39L90.08 5.39L90.08 5.39Q90.08 5.08 90.08 4.93L90.08 4.93L90.08 4.93Q90.72 5.03 91.07 5.50L91.07 5.50L91.07 5.50Q91.42 5.96 91.42 6.78L91.42 6.78L91.42 6.78Q91.42 7.20 91.35 7.80L91.35 7.80L91.35 7.80Q92.57 7.80 93.07 7.39L93.07 7.39L93.07 7.39Q93.10 7.59 93.10 7.76ZM97.62 8.08L97.62 8.08L97.62 8.08Q96.78 8.08 96.20 9.04L96.20 9.04L96.20 9.04Q95.62 10.01 95.42 11.31L95.42 11.31L95.82 11.31L95.82 11.31Q96.56 11.31 97.10 11.10L97.10 11.10L97.10 11.10Q97.65 10.89 97.94 10.56L97.94 10.56L97.94 10.56Q98.50 9.91 98.50 9.10L98.50 9.10L98.50 9.10Q98.50 8.64 98.29 8.36L98.29 8.36L98.29 8.36Q98.07 8.08 97.62 8.08ZM99.60 13.75L99.60 13.75Q98.95 14.80 98.18 15.22L98.18 15.22L98.18 15.22Q97.41 15.64 96.40 15.64L96.40 15.64L96.40 15.64Q95.38 15.64 94.63 14.74L94.63 14.74L94.63 14.74Q93.87 13.85 93.87 12.22L93.87 12.22L93.87 12.22Q93.87 10.37 94.86 8.92L94.86 8.92L94.86 8.92Q95.35 8.22 96.14 7.78L96.14 7.78L96.14 7.78Q96.94 7.35 97.89 7.35L97.89 7.35L97.89 7.35Q99.99 7.35 99.99 9.38L99.99 9.38L99.99 9.38Q99.99 10.60 99.04 11.29L99.04 11.29L99.04 11.29Q98.10 11.98 96.85 11.98L96.85 11.98L96.85 11.98Q96.03 11.98 95.37 11.83L95.37 11.83L95.37 11.83Q95.35 11.97 95.35 12.26L95.35 12.26L95.35 12.26Q95.35 14.74 96.82 14.74L96.82 14.74L96.82 14.74Q98.21 14.74 99.08 13.37L99.08 13.37L99.08 13.37Q99.60 13.44 99.60 13.75L99.60 13.75ZM103.45 10.88L103.45 10.88Q103.95 9.06 104.66 8.20L104.66 8.20L104.66 8.20Q105.36 7.34 105.97 7.34L105.97 7.34L105.97 7.34Q106.58 7.34 106.89 7.79L106.89 7.79L106.89 7.79Q107.20 8.25 107.20 8.95L107.20 8.95L107.20 8.95Q107.20 9.65 106.83 10.16L106.83 10.16L106.83 10.16Q106.47 10.67 105.77 10.67L105.77 10.67L105.77 10.67Q105.55 10.67 105.42 10.64L105.42 10.64L105.42 10.64Q105.90 9.95 105.90 9.24L105.90 9.24L105.90 9.24Q105.90 8.74 105.49 8.74L105.49 8.74L105.49 8.74Q105.17 8.74 104.80 9.11L104.80 9.11L104.80 9.11Q104.44 9.49 104.10 10.16L104.10 10.16L104.10 10.16Q103.77 10.84 103.54 11.91L103.54 11.91L103.54 11.91Q103.32 12.99 103.32 14.24L103.32 14.24L103.32 14.24Q103.32 14.38 103.39 15.43L103.39 15.43L103.39 15.43Q103.03 15.46 102.97 15.46L102.97 15.46L102.97 15.46Q101.74 15.46 101.74 14.25L101.74 14.25L101.74 14.25Q101.74 13.97 102.03 12.10L102.03 12.10L102.03 12.10Q102.33 10.22 102.33 9.11L102.33 9.11L102.33 9.11Q102.33 7.99 102.09 7.06L102.09 7.06L102.09 7.06Q102.91 7.38 103.24 7.97L103.24 7.97L103.24 7.97Q103.57 8.57 103.57 9.36L103.57 9.36L103.57 9.36Q103.57 10.15 103.45 10.88L103.45 10.88Z"></path></g><!----><g data-v-423bf9ae="" id="40122cba-6928-4088-9ac3-5d464fc907d3" transform="matrix(1.0000011020236546,0,0,1.0000011020236546,131.15988752613404,-5.000104743077948)" stroke="none" fill="white"><path d="M26.65 41.964v7.611a2.12 2.12 0 0 0 .623 1.501l16.98 16.98v.002l7.87 7.868v16.951a2.123 2.123 0 1 0 4.245 0v-16.95l7.866-7.867.005-.004 8.488-8.489a2.12 2.12 0 0 0 .622-1.5v-7.613l7.869-7.868a2.122 2.122 0 0 0-3.002-3.002l-4.867 4.867v-3.366a2.123 2.123 0 1 0-4.245 0v16.102l-4.245 4.245V33.473l7.868-7.869a2.12 2.12 0 0 0 .622-1.5v-8.49a2.123 2.123 0 1 0-4.245 0v7.61l-4.245 4.246v-3.366a2.123 2.123 0 0 0-4.246 0v28.838l-4.245-4.246V32.594a2.123 2.123 0 0 0-4.245 0v16.981a2.12 2.12 0 0 0 .622 1.501l7.868 7.869v6.732l-6.368 6.368-6.368-6.368V7.123a2.123 2.123 0 0 0-4.245 0V35.96l-4.245-4.246V15.613a2.123 2.123 0 1 0-4.245 0v16.981a2.12 2.12 0 0 0 .621 1.501l7.87 7.869v19.468L30.895 48.696V24.104a2.123 2.123 0 0 0-4.245 0V35.96l-4.867-4.867a2.122 2.122 0 0 0-3.002 3.001z"></path></g><!----></svg>